<svg width="28" height="31" viewBox="0 0 28 31" fill="none" xmlns="http://www.w3.org/2000/svg">
<path d="M21.75 4.66663C23.5449 4.66663 25 6.1217 25 7.91663V23.4166C25 25.2116 23.5449 26.6666 21.75 26.6666H6.25C4.45507 26.6666 3 25.2116 3 23.4166V7.91663C3 6.1217 4.45507 4.66663 6.25 4.66663H21.75ZM23.5 11.1696H4.5V23.4166C4.5 24.3831 5.2835 25.1666 6.25 25.1666H21.75C22.7165 25.1666 23.5 24.3831 23.5 23.4166V11.1696ZM8.74878 19.168C9.43913 19.168 9.99878 19.7277 9.99878 20.418C9.99878 21.1084 9.43913 21.668 8.74878 21.668C8.05842 21.668 7.49878 21.1084 7.49878 20.418C7.49878 19.7277 8.05842 19.168 8.74878 19.168ZM14.0033 19.168C14.6936 19.168 15.2533 19.7277 15.2533 20.418C15.2533 21.1084 14.6936 21.668 14.0033 21.668C13.3129 21.668 12.7533 21.1084 12.7533 20.418C12.7533 19.7277 13.3129 19.168 14.0033 19.168ZM8.74878 14.168C9.43913 14.168 9.99878 14.7277 9.99878 15.418C9.99878 16.1084 9.43913 16.668 8.74878 16.668C8.05842 16.668 7.49878 16.1084 7.49878 15.418C7.49878 14.7277 8.05842 14.168 8.74878 14.168ZM14.0033 14.168C14.6936 14.168 15.2533 14.7277 15.2533 15.418C15.2533 16.1084 14.6936 16.668 14.0033 16.668C13.3129 16.668 12.7533 16.1084 12.7533 15.418C12.7533 14.7277 13.3129 14.168 14.0033 14.168ZM19.2577 14.168C19.9481 14.168 20.5077 14.7277 20.5077 15.418C20.5077 16.1084 19.9481 16.668 19.2577 16.668C18.5674 16.668 18.0077 16.1084 18.0077 15.418C18.0077 14.7277 18.5674 14.168 19.2577 14.168ZM21.75 6.16663H6.25C5.2835 6.16663 4.5 6.95013 4.5 7.91663V9.66963H23.5V7.91663C23.5 6.95013 22.7165 6.16663 21.75 6.16663Z" fill="white"/>
</svg>
