<svg width="28" height="31" viewBox="0 0 28 31" fill="none" xmlns="http://www.w3.org/2000/svg">
<path d="M25 11.1667V23.4167C25 25.2117 23.5449 26.6667 21.75 26.6667H6.25C4.45507 26.6667 3 25.2117 3 23.4167V11.1667H25ZM8.74125 19.1682C8.0509 19.1682 7.49125 19.7278 7.49125 20.4182C7.49125 21.1085 8.0509 21.6682 8.74125 21.6682C9.43161 21.6682 9.99125 21.1085 9.99125 20.4182C9.99125 19.7278 9.43161 19.1682 8.74125 19.1682ZM13.9957 19.1682C13.3054 19.1682 12.7457 19.7278 12.7457 20.4182C12.7457 21.1085 13.3054 21.6682 13.9957 21.6682C14.6861 21.6682 15.2457 21.1085 15.2457 20.4182C15.2457 19.7278 14.6861 19.1682 13.9957 19.1682ZM8.74125 14.1682C8.0509 14.1682 7.49125 14.7278 7.49125 15.4182C7.49125 16.1085 8.0509 16.6682 8.74125 16.6682C9.43161 16.6682 9.99125 16.1085 9.99125 15.4182C9.99125 14.7278 9.43161 14.1682 8.74125 14.1682ZM13.9957 14.1682C13.3054 14.1682 12.7457 14.7278 12.7457 15.4182C12.7457 16.1085 13.3054 16.6682 13.9957 16.6682C14.6861 16.6682 15.2457 16.1085 15.2457 15.4182C15.2457 14.7278 14.6861 14.1682 13.9957 14.1682ZM19.2502 14.1682C18.5599 14.1682 18.0002 14.7278 18.0002 15.4182C18.0002 16.1085 18.5599 16.6682 19.2502 16.6682C19.9406 16.6682 20.5002 16.1085 20.5002 15.4182C20.5002 14.7278 19.9406 14.1682 19.2502 14.1682ZM21.75 4.66675C23.5449 4.66675 25 6.12182 25 7.91675V9.66675H3V7.91675C3 6.12182 4.45507 4.66675 6.25 4.66675H21.75Z" fill="#6750A4"/>
</svg>
