<svg width="24" height="25" viewBox="0 0 24 25" fill="none" xmlns="http://www.w3.org/2000/svg">
<path d="M4 6.46973C4 5.77918 4.3153 5.17637 4.77423 4.68997C5.2294 4.20757 5.85301 3.80717 6.56668 3.48725C7.99575 2.84663 9.91738 2.46973 12 2.46973C14.0826 2.46973 16.0042 2.84663 17.4333 3.48725C18.147 3.80717 18.7706 4.20757 19.2258 4.68997C19.6847 5.17637 20 5.77918 20 6.46973V18.4697C20 19.1603 19.6847 19.7631 19.2258 20.2495C18.7706 20.7319 18.147 21.1323 17.4333 21.4522C16.0042 22.0928 14.0826 22.4697 12 22.4697C9.91738 22.4697 7.99575 22.0928 6.56668 21.4522C5.85301 21.1323 5.2294 20.7319 4.77423 20.2495C4.3153 19.7631 4 19.1603 4 18.4697V6.46973ZM5.5 6.46973C5.5 6.67664 5.59044 6.92881 5.86525 7.22007C6.14382 7.51531 6.58195 7.81523 7.18027 8.08344C8.37519 8.61909 10.0786 8.96973 12 8.96973C13.9214 8.96973 15.6248 8.61909 16.8197 8.08344C17.418 7.81523 17.8562 7.51531 18.1348 7.22007C18.4096 6.92881 18.5 6.67664 18.5 6.46973C18.5 6.26281 18.4096 6.01064 18.1348 5.71939C17.8562 5.42414 17.418 5.12422 16.8197 4.85601C15.6248 4.32036 13.9214 3.96973 12 3.96973C10.0786 3.96973 8.37519 4.32036 7.18027 4.85601C6.58195 5.12422 6.14382 5.42414 5.86525 5.71939C5.59044 6.01064 5.5 6.26281 5.5 6.46973ZM18.5 8.86215C18.1791 9.08254 17.8194 9.27915 17.4333 9.45221C16.0042 10.0928 14.0826 10.4697 12 10.4697C9.91738 10.4697 7.99575 10.0928 6.56668 9.45221C6.18063 9.27915 5.82094 9.08254 5.5 8.86215V18.4697C5.5 18.6766 5.59044 18.9288 5.86525 19.2201C6.14382 19.5153 6.58195 19.8152 7.18027 20.0834C8.37519 20.6191 10.0786 20.9697 12 20.9697C13.9214 20.9697 15.6248 20.6191 16.8197 20.0834C17.418 19.8152 17.8562 19.5153 18.1348 19.2201C18.4096 18.9288 18.5 18.6766 18.5 18.4697V8.86215Z" fill="white"/>
</svg>
