<svg width="24" height="25" viewBox="0 0 24 25" fill="none" xmlns="http://www.w3.org/2000/svg">
<path d="M12 10.47C16.4183 10.47 20 8.67911 20 6.46997C20 4.26083 16.4183 2.46997 12 2.46997C7.58172 2.46997 4 4.26083 4 6.46997C4 8.67911 7.58172 10.47 12 10.47ZM18.3277 10.64C18.9156 10.3461 19.4979 9.97396 20 9.52334V18.47C20 20.6791 16.4183 22.47 12 22.47C7.58172 22.47 4 20.6791 4 18.47V9.52334C4.50211 9.97396 5.08441 10.3461 5.67233 10.64C7.36922 11.4885 9.60849 11.97 12 11.97C14.3915 11.97 16.6308 11.4885 18.3277 10.64Z" fill="#6750A4"/>
</svg>
