<svg width="20" height="23" viewBox="0 0 20 23" fill="none" xmlns="http://www.w3.org/2000/svg">
<path d="M8.59191 1.1628C9.41459 0.502701 10.5854 0.5027 11.4081 1.1628L19.1581 7.38113C19.6903 7.80817 20 8.45368 20 9.13605V20.4164C20 21.6591 18.9926 22.6664 17.75 22.6664H14.75C13.5074 22.6664 12.5 21.6591 12.5 20.4164V14.4164C12.5 14.0022 12.1642 13.6664 11.75 13.6664H8.25C7.83579 13.6664 7.5 14.0022 7.5 14.4164V20.4164C7.5 21.6591 6.49264 22.6664 5.25 22.6664H2.25C1.00736 22.6664 0 21.6591 0 20.4164V9.13605C0 8.45368 0.309674 7.80817 0.841907 7.38113L8.59191 1.1628ZM10.4694 2.33275C10.1951 2.11272 9.80486 2.11272 9.53063 2.33275L1.78064 8.55108C1.60322 8.69343 1.5 8.9086 1.5 9.13605V20.4164C1.5 20.8307 1.83579 21.1664 2.25 21.1664H5.25C5.66421 21.1664 6 20.8307 6 20.4164V14.4164C6 13.1738 7.00736 12.1664 8.25 12.1664H11.75C12.9926 12.1664 14 13.1738 14 14.4164V20.4164C14 20.8307 14.3358 21.1664 14.75 21.1664H17.75C18.1642 21.1664 18.5 20.8307 18.5 20.4164V9.13605C18.5 8.90859 18.3968 8.69343 18.2194 8.55108L10.4694 2.33275Z" fill="white"/>
</svg>
