<svg width="28" height="31" viewBox="0 0 28 31" fill="none" xmlns="http://www.w3.org/2000/svg">
<path d="M12.5921 5.16445C13.4147 4.50459 14.5853 4.50459 15.4079 5.16445L23.1579 11.3812C23.6902 11.8082 24 12.4538 24 13.1363V24.4166C24 25.6592 22.9926 26.6666 21.75 26.6666H19.25C18.0074 26.6666 17 25.6592 17 24.4166V17.9166C17 17.5024 16.6642 17.1666 16.25 17.1666H11.75C11.3358 17.1666 11 17.5024 11 17.9166V24.4166C11 25.6592 9.99264 26.6666 8.75 26.6666H6.25C5.00736 26.6666 4 25.6592 4 24.4166V13.1363C4 12.4538 4.30976 11.8082 4.84212 11.3812L12.5921 5.16445Z" fill="#6750A4"/>
</svg>
