<svg width="28" height="31" viewBox="0 0 28 31" fill="none" xmlns="http://www.w3.org/2000/svg">
<path d="M2 15.4668C2 22.0942 7.37258 27.4668 14 27.4668C20.6274 27.4668 26 22.0942 26 15.4668C26 8.83938 20.6274 3.4668 14 3.4668C7.37258 3.4668 2 8.83938 2 15.4668ZM15.25 9.4668C15.25 10.1572 14.6904 10.7168 14 10.7168C13.3096 10.7168 12.75 10.1572 12.75 9.4668C12.75 8.77644 13.3096 8.2168 14 8.2168C14.6904 8.2168 15.25 8.77644 15.25 9.4668ZM14 12.4668C14.5523 12.4668 15 12.9145 15 13.4668L15 21.4668C15 22.0191 14.5523 22.4668 14 22.4668C13.4477 22.4668 13 22.0191 13 21.4668L13 13.4668C13 12.9145 13.4477 12.4668 14 12.4668Z" fill="#6750A4"/>
</svg>
