<svg width="28" height="31" viewBox="0 0 28 31" fill="none" xmlns="http://www.w3.org/2000/svg">
<path d="M15 9.46667C15 10.019 14.5523 10.4667 14 10.4667C13.4477 10.4667 13 10.019 13 9.46667C13 8.91439 13.4477 8.46667 14 8.46667C14.5523 8.46667 15 8.91439 15 9.46667ZM13.25 13.2167L13.25 20.7167C13.25 21.1309 13.5858 21.4667 14 21.4667C14.4142 21.4667 14.75 21.1309 14.75 20.7167L14.75 13.2167C14.75 12.8025 14.4142 12.4667 14 12.4667C13.5858 12.4667 13.25 12.8025 13.25 13.2167ZM2 15.4667C2 8.83926 7.37258 3.46667 14 3.46667C20.6274 3.46667 26 8.83926 26 15.4667C26 22.0941 20.6274 27.4667 14 27.4667C7.37258 27.4667 2 22.0941 2 15.4667ZM14 4.96667C8.20101 4.96667 3.5 9.66769 3.5 15.4667C3.5 21.2657 8.20101 25.9667 14 25.9667C19.799 25.9667 24.5 21.2657 24.5 15.4667C24.5 9.66769 19.799 4.96667 14 4.96667Z" fill="white"/>
</svg>
