<svg width="50" height="50" viewBox="0 0 50 50" fill="none" xmlns="http://www.w3.org/2000/svg">
<path d="M0 25C0 38.8071 11.1929 50 25 50C38.8071 50 50 38.8071 50 25C50 11.1929 38.8071 0 25 0C11.1929 0 0 11.1929 0 25ZM27.6042 12.5C27.6042 13.9382 26.4382 15.1042 25 15.1042C23.5618 15.1042 22.3958 13.9382 22.3958 12.5C22.3958 11.0618 23.5618 9.89583 25 9.89583C26.4382 9.89583 27.6042 11.0618 27.6042 12.5ZM25 18.75C26.1506 18.75 27.0833 19.6827 27.0833 20.8333L27.0833 37.5C27.0833 38.6506 26.1506 39.5833 25 39.5833C23.8494 39.5833 22.9167 38.6506 22.9167 37.5L22.9167 20.8333C22.9167 19.6827 23.8494 18.75 25 18.75Z" fill="white"/>
</svg>
