<svg width="80" height="80" viewBox="0 0 80 80" fill="none" xmlns="http://www.w3.org/2000/svg">
<path d="M0 40C0 62.0914 17.9086 80 40 80C62.0914 80 80 62.0914 80 40C80 17.9086 62.0914 0 40 0C17.9086 0 0 17.9086 0 40ZM44.1667 20C44.1667 22.3012 42.3012 24.1667 40 24.1667C37.6988 24.1667 35.8333 22.3012 35.8333 20C35.8333 17.6988 37.6988 15.8333 40 15.8333C42.3012 15.8333 44.1667 17.6988 44.1667 20ZM40 30C41.841 30 43.3333 31.4924 43.3333 33.3333L43.3333 60C43.3333 61.8409 41.8409 63.3333 40 63.3333C38.159 63.3333 36.6667 61.8409 36.6667 60L36.6667 33.3333C36.6667 31.4924 38.159 30 40 30Z" fill="#B3261E"/>
</svg>
