<svg width="180" height="181" viewBox="0 0 180 181" fill="none" xmlns="http://www.w3.org/2000/svg">
<path d="M31.7649 42.3532C31.7649 18.9622 50.7271 0 74.1182 0C97.5092 0 116.471 18.9622 116.471 42.3532C116.471 55.003 110.926 66.3575 102.133 74.1182H100.727C92.2214 74.1182 84.6481 78.1134 79.7768 84.3318C77.9257 84.5789 76.0368 84.7065 74.1182 84.7065C50.7271 84.7065 31.7649 65.7443 31.7649 42.3532ZM74.6774 95.2948L21.269 95.2948C9.56284 95.2948 0 104.685 0 116.471C0 134.378 8.81805 147.88 22.606 156.671C36.1799 165.326 54.4796 169.413 74.1182 169.413C82.6226 169.413 90.876 168.647 98.6032 167.075L81.7311 149.855C76.8509 144.874 74.1171 138.175 74.1171 131.198V100.76C74.1171 98.8867 74.3101 97.0588 74.6774 95.2948ZM84.7052 131.196C84.7052 135.389 86.3474 139.414 89.279 142.406L121.405 175.203C127.544 181.47 137.576 181.617 143.895 175.533L175.094 145.491C181.527 139.297 181.65 129.027 175.367 122.681L142.463 89.444C139.462 86.412 135.375 84.7065 131.112 84.7065H100.69C91.8617 84.7065 84.7052 91.8735 84.7052 100.714V131.196ZM113.824 121.766C109.439 121.766 105.883 118.21 105.883 113.824C105.883 109.439 109.439 105.883 113.824 105.883C118.21 105.883 121.766 109.439 121.766 113.824C121.766 118.21 118.21 121.766 113.824 121.766Z" fill="white"/>
</svg>
