<svg width="28" height="31" viewBox="0 0 28 31" fill="none" xmlns="http://www.w3.org/2000/svg">
<path d="M21 17.5333C22.6569 17.5333 24 18.8765 24 20.5333V21.248C24 24.8257 19.7895 27.5333 14 27.5333C8.21053 27.5333 4 24.9666 4 21.248V20.5333C4 18.8765 5.34315 17.5333 7 17.5333H21ZM21 19.0333H7C6.2203 19.0333 5.57955 19.6282 5.50687 20.3889L5.5 20.5333V21.248C5.5 23.9224 8.88879 26.0333 14 26.0333C18.926 26.0333 22.3548 23.9284 22.4955 21.4093L22.5 21.248V20.5333C22.5 19.7536 21.9051 19.1129 21.1445 19.0402L21 19.0333ZM14 3.53333C17.3137 3.53333 20 6.21962 20 9.53333C20 12.847 17.3137 15.5333 14 15.5333C10.6863 15.5333 8 12.847 8 9.53333C8 6.21962 10.6863 3.53333 14 3.53333ZM14 5.03333C11.5147 5.03333 9.5 7.04804 9.5 9.53333C9.5 12.0186 11.5147 14.0333 14 14.0333C16.4853 14.0333 18.5 12.0186 18.5 9.53333C18.5 7.04804 16.4853 5.03333 14 5.03333Z" fill="white"/>
</svg>
