<svg width="28" height="30" viewBox="0 0 28 30" fill="none" xmlns="http://www.w3.org/2000/svg">
<path d="M14.1875 4C11.288 4 8.9375 6.31758 8.9375 9.17647C8.9375 12.0354 11.288 14.3529 14.1875 14.3529C17.087 14.3529 19.4375 12.0354 19.4375 9.17647C19.4375 6.31758 17.087 4 14.1875 4ZM10.25 9.17647C10.25 7.03231 12.0129 5.29412 14.1875 5.29412C16.3621 5.29412 18.125 7.03231 18.125 9.17647C18.125 11.3206 16.3621 13.0588 14.1875 13.0588C12.0129 13.0588 10.25 11.3206 10.25 9.17647ZM7.63645 15.6471C6.18539 15.6471 5 16.7948 5 18.2353C5 20.4239 6.09306 22.074 7.80218 23.1485C9.17798 24.0135 10.9454 24.5052 12.875 24.6557V23.4118C12.875 23.3935 12.8753 23.3754 12.8758 23.3573C11.1457 23.21 9.63594 22.7666 8.50781 22.0574C7.12922 21.1907 6.3125 19.929 6.3125 18.2353C6.3125 17.5193 6.90032 16.9412 7.63645 16.9412L16.9634 16.9412C17.0335 16.6683 17.1285 16.4014 17.2486 16.1415C17.3273 15.9713 17.4141 15.8065 17.5089 15.6471L7.63645 15.6471ZM14.3823 25.8079C14.5122 25.936 14.666 26 14.8438 26H17.4688C17.6191 25.9933 17.7388 25.9629 17.8276 25.909C17.9165 25.8551 17.9814 25.7809 18.0225 25.6866C18.0635 25.5922 18.0908 25.4911 18.1045 25.3833C18.1182 25.2754 18.125 25.1642 18.125 25.0496V24.7059C18.4395 24.6991 18.6855 24.689 18.8633 24.6756C19.041 24.6621 19.1743 24.6115 19.2632 24.5239C19.3521 24.4363 19.4033 24.3082 19.417 24.1397C19.4307 23.9712 19.4375 23.7286 19.4375 23.4118H20.0938C20.2373 23.4118 20.3535 23.3814 20.4424 23.3208C20.5312 23.2601 20.5996 23.186 20.6475 23.0983C20.6953 23.0107 20.7261 22.9096 20.7397 22.795C20.7534 22.6805 20.7603 22.5625 20.7603 22.4412C20.7534 22.3401 20.75 22.2423 20.75 22.148V21.8952C20.9756 21.9761 21.2046 22.0334 21.437 22.0671C21.6694 22.1008 21.9053 22.1176 22.1445 22.1176C22.6914 22.1109 23.1938 22.0064 23.6519 21.8042C24.1099 21.602 24.5166 21.3189 24.8721 20.955C25.2275 20.591 25.5044 20.1765 25.7026 19.7114C25.9009 19.2463 26 18.7543 26 18.2353C26 17.6961 25.8975 17.1906 25.6924 16.7188C25.4873 16.2469 25.207 15.8358 24.8516 15.4853C24.4961 15.1348 24.0791 14.8585 23.6006 14.6562C23.1221 14.454 22.6094 14.3529 22.0625 14.3529C21.5293 14.3664 21.0269 14.4675 20.5552 14.6562C20.0835 14.845 19.6665 15.1146 19.3042 15.4651C18.9419 15.8156 18.6548 16.22 18.4429 16.6783C18.231 17.1366 18.125 17.6287 18.125 18.1544C18.125 18.4712 18.1626 18.8048 18.2378 19.1553L14.3823 22.9568C14.2524 23.0849 14.1875 23.2365 14.1875 23.4118V25.3529C14.1875 25.5282 14.2524 25.6798 14.3823 25.8079ZM23.7441 16.5772C23.9355 16.7659 24.0312 16.9951 24.0312 17.2647C24.0312 17.5343 23.9355 17.7635 23.7441 17.9522C23.5527 18.1409 23.3203 18.2353 23.0469 18.2353C22.7734 18.2353 22.541 18.1409 22.3496 17.9522C22.1582 17.7635 22.0625 17.5343 22.0625 17.2647C22.0625 16.9951 22.1582 16.7659 22.3496 16.5772C22.541 16.3885 22.7734 16.2941 23.0469 16.2941C23.3203 16.2941 23.5527 16.3885 23.7441 16.5772Z" fill="#6750A4"/>
</svg>
