<svg width="35" height="28" viewBox="0 0 35 28" fill="none" xmlns="http://www.w3.org/2000/svg">
<path d="M13.5682 13.5C14.1217 13.5 14.5703 13.9487 14.5703 14.5022C14.5703 15.0556 14.1217 15.5043 13.5682 15.5043C13.0147 15.5043 12.566 15.0556 12.566 14.5022C12.566 13.9487 13.0147 13.5 13.5682 13.5ZM17.066 6.35418V12.5L17.0666 13.005L24.508 13.004L22.7856 11.2803C22.5194 11.0139 22.4953 10.5973 22.7132 10.3037L22.7858 10.2196C23.0521 9.95338 23.4688 9.92924 23.7624 10.1471L23.8465 10.2198L26.8431 13.2174C27.109 13.4835 27.1334 13.8997 26.916 14.1933L26.8436 14.2774L23.847 17.2808C23.5544 17.5741 23.0795 17.5746 22.7863 17.282C22.5197 17.0161 22.4951 16.5994 22.7126 16.3056L22.7851 16.2214L24.498 14.504L17.0666 14.505L17.066 21.25C17.066 21.7164 16.6449 22.0697 16.1856 21.9886L7.68559 20.4873C7.32725 20.424 7.06604 20.1126 7.06604 19.7487V7.75002C7.06604 7.38271 7.33205 7.06945 7.69451 7.00993L16.1945 5.6141C16.6511 5.53911 17.066 5.89145 17.066 6.35418ZM15.566 7.23739L8.56604 8.3869V19.1196L15.566 20.3559V7.23739ZM18.066 20.5013L18.8312 20.5015L18.9331 20.4946C19.2996 20.4448 19.5818 20.1304 19.5812 19.7502L19.574 15.5H18.066V20.5013ZM18.068 12L18.066 10.7254V7.00001L18.8113 7.00002C19.1906 7.00002 19.5041 7.28154 19.5543 7.64713L19.5613 7.74878L19.568 12H18.068Z" fill="white"/>
</svg>
