<svg width="205" height="171" viewBox="0 0 205 171" fill="none" xmlns="http://www.w3.org/2000/svg">
<path d="M14.1427 170.618C6.08604 170.618 -0.341845 161.402 0.0141018 150.363C0.479522 135.93 5.86063 115.55 27.0717 95.1853C52.9377 70.3493 41.272 -1.15973 96.2299 3.77442C151.188 8.70858 145.948 61.5533 179.647 85.7748C201.098 101.193 204.999 131.36 205 151.253C205 161.954 198.661 170.619 190.858 170.619L14.1427 170.618Z" fill="#F3F5FD"/>
<path d="M21.1118 168.926C16.9819 167.29 12.9749 165.153 9.3237 159.17C8.57448 157.945 7.87051 156.374 8.28109 154.907C8.58991 153.803 9.48385 153.095 10.3922 152.915C10.7305 152.852 11.0734 152.84 11.4139 152.879C11.4158 152.879 11.4175 152.88 11.4179 152.879C11.9414 152.947 12.4589 153.077 12.9639 153.266L13.1079 153.32C15.5177 154.195 17.8131 155.52 19.9201 157.252C20.1111 157.407 20.3375 157.475 20.5627 157.445C20.7879 157.416 20.9986 157.289 21.1605 157.087C21.3223 156.885 21.4259 156.619 21.4544 156.331C21.4829 156.044 21.4345 155.754 21.3172 155.506C21.1023 155.057 20.8522 154.638 20.5707 154.254C20.1556 153.699 19.7009 153.195 19.2124 152.748C18.5631 152.143 17.8702 151.602 17.1925 151.05C14.6722 148.999 12.2846 146.693 10.0525 144.155C8.45938 142.341 6.9013 140.328 6.14416 137.778C5.79635 136.606 5.63808 135.254 6.05304 134.118C6.73782 132.252 8.67749 131.729 10.2637 132.117C13.0433 132.797 15.2639 135.401 17.2329 137.996C18.8659 140.151 20.6956 142.539 23.0415 142.672C23.4414 142.72 23.8435 142.617 24.198 142.375C24.8673 141.857 25.0391 140.657 24.8008 139.704C24.5625 138.751 24.0103 137.99 23.4775 137.259C20.3808 133.013 17.3334 128.596 15.3224 123.394C13.3115 118.192 12.4211 112.05 13.8184 106.526C14.2281 104.912 14.8437 103.339 15.8039 102.167C16.7642 100.994 18.111 100.258 19.4293 100.483C21.2253 100.785 22.578 102.721 23.4879 104.722C26.6158 111.585 26.4246 119.994 27.3056 127.855C27.552 130.056 27.9103 132.313 28.9362 134.124C29.0308 134.298 29.1534 134.445 29.2959 134.553C30.14 135.178 30.8976 133.918 31.2143 132.849C32.4654 128.621 32.7782 123.785 35.0184 120.285C35.8733 118.952 37.0827 117.839 38.4308 117.85C40.0781 117.864 41.4867 119.621 41.9669 121.634C42.4471 123.646 42.16 125.832 41.6454 127.831C40.6899 131.536 38.9773 134.866 36.9595 137.792C35.896 139.337 34.6926 140.898 34.3738 142.913C34.2761 143.598 34.317 144.304 34.4927 144.963C34.6683 145.622 34.9729 146.213 35.3774 146.679C35.5666 146.89 35.7869 147.05 36.0253 147.149C36.2637 147.249 36.5152 147.286 36.7651 147.259C37.3054 147.196 37.7944 146.844 38.2655 146.501C38.4631 146.358 38.6616 146.212 38.8612 146.068C39.648 145.496 40.4349 144.923 41.2219 144.349C43.2226 142.89 45.6386 141.4 47.7227 142.656C48.7862 143.298 49.4829 144.561 49.8107 146.01C50.104 147.325 50.104 148.719 49.8107 150.034C49.1899 152.769 45.2772 160.379 43.6632 162.342C41.7788 164.634 35.2427 174.523 21.1118 168.926Z" fill="#8DDBE0"/>
<path d="M118.952 9.8916H48.6982V168.335H118.952V9.8916Z" fill="white"/>
<path d="M132.479 60.2229C132.479 60.2229 134.156 59.3022 134.156 53.6723L137.526 53.2334C137.526 53.2334 136.831 58.2083 138.409 59.9754L132.479 60.2229Z" fill="#E98862"/>
<path d="M132.411 51.3069C132.532 53.0275 133.154 54.7101 134.289 55.3811C135.525 56.1623 136.89 56.5455 138.268 56.4971C141.927 56.4971 141.886 45.86 140.292 43.6274C138.698 41.3949 133.55 42.1637 132.714 45.5306C132.281 47.2718 132.296 49.6702 132.411 51.3069Z" fill="#E98862"/>
<path d="M140.099 47.9482C140.809 47.9409 141.518 47.8646 142.219 47.7198C142.219 47.7198 142.004 40.8118 136.264 41.2057C135.518 41.1621 134.771 41.2185 134.035 41.3738C132.31 41.7117 129.863 43.9662 129.468 49.6081C129.287 52.1964 128.589 54.6366 128.056 56.1811C127.993 56.3624 127.967 56.561 127.979 56.7588C127.991 56.9566 128.042 57.1474 128.127 57.3137C128.211 57.4801 128.327 57.6169 128.463 57.7116C128.6 57.8063 128.753 57.856 128.908 57.8562L141.206 57.7317C141.352 57.7319 141.495 57.6886 141.625 57.6052C141.755 57.5218 141.868 57.4007 141.955 57.2515C142.042 57.1023 142.1 56.9293 142.125 56.7462C142.15 56.5631 142.141 56.375 142.099 56.1971C141.431 53.3652 140.207 51.6301 140.099 47.9482Z" fill="#0F1011"/>
<path d="M160.89 78.8211C161.512 78.8211 163.589 78.4019 163.738 79.0764C163.827 79.4807 162.278 79.9582 162.278 79.9582" fill="#E98862"/>
<path d="M160.564 82.0054C160.564 82.0054 164.758 84.2076 167.168 81.6958C167.229 81.6317 167.274 81.5455 167.296 81.4484C167.319 81.3513 167.318 81.2478 167.293 81.1515C167.269 81.0552 167.222 80.9706 167.16 80.9086C167.097 80.8466 167.021 80.8102 166.942 80.8041C165.318 80.6821 161.981 80.2634 162.37 78.8945H159.751" fill="#E98862"/>
<path d="M149.547 77.4154C150.166 77.3392 152.202 76.6668 152.401 77.3197C152.52 77.7115 151.014 78.3769 151.014 78.3769" fill="#E98862"/>
<path d="M149.462 80.6247C149.462 80.6247 153.802 82.3022 156.012 79.5055C156.068 79.4341 156.106 79.3428 156.121 79.2433C156.136 79.1439 156.127 79.041 156.096 78.9481C156.064 78.8552 156.011 78.7766 155.944 78.7226C155.877 78.6686 155.799 78.6418 155.72 78.6455C154.093 78.7233 150.74 78.7161 151.026 77.3057L148.418 77.6273" fill="#E98862"/>
<path d="M127.761 84.1289C127.454 84.1289 127.149 84.0491 126.866 83.8944C126.584 83.7397 126.328 83.5133 126.116 83.2289C125.904 82.9444 125.739 82.6079 125.632 82.2397C125.524 81.8714 125.476 81.4791 125.491 81.0865L126.106 64.4541L130.648 64.7286L130.151 78.1456L149.94 76.7493L150.19 82.5508L127.885 84.1246C127.846 84.1262 127.803 84.1289 127.761 84.1289Z" fill="#367CFF"/>
<path d="M117.566 167.288H68.7716V20.0598L117.566 12.0654V167.288Z" fill="#DEE8F5"/>
<path d="M117.566 12.0657V167.289H50.0046V12.0657H117.566ZM120.171 8.73633H47.3994V170.618H120.171V8.73633Z" fill="#C1D8ED"/>
<path d="M74.9265 93.5855C76.6156 93.5855 77.9849 91.8356 77.9849 89.677C77.9849 87.5184 76.6156 85.7686 74.9265 85.7686C73.2374 85.7686 71.8682 87.5184 71.8682 89.677C71.8682 91.8356 73.2374 93.5855 74.9265 93.5855Z" fill="white"/>
<path d="M146.665 167.675L142.316 167.015C142.512 164.911 142.733 162.385 142.748 161.971C142.748 161.997 142.748 162.019 142.748 162.036H147.127C147.127 162.204 147.127 162.714 146.665 167.675Z" fill="#E98862"/>
<path d="M129.217 168.344L124.838 168.325C124.838 168.325 124.853 162.547 124.853 162.035H129.232C129.232 162.549 129.217 168.344 129.217 168.344Z" fill="#E98862"/>
<path d="M140.566 165.909L148.282 165.741C147.919 154.007 147.897 141.699 147.784 129.937C146.278 117.259 145.485 103.337 143.626 90.7504L127.476 89.6768C127.476 89.6768 127.118 98.0336 126.976 101.345C126.153 120.37 124.652 147.166 123.709 165.589L131.397 166.419C132.782 148.355 134.926 122.035 136.245 103.059C137.759 112.297 138.788 121.864 140.105 131.023C140.368 142.49 140.591 154.477 140.566 165.909Z" fill="#262626"/>
<path d="M134.54 170.509C134.658 170.508 134.774 170.476 134.882 170.415C134.99 170.355 135.087 170.266 135.166 170.155C135.246 170.045 135.307 169.914 135.346 169.772C135.384 169.63 135.399 169.479 135.39 169.329V169.329C135.378 169.121 135.319 168.922 135.22 168.755C135.122 168.589 134.989 168.462 134.836 168.389L129.739 166.207C129.64 166.165 129.536 166.151 129.432 166.166C129.329 166.18 129.229 166.223 129.14 166.292C128.439 166.913 127.601 167.231 126.749 167.198C126.085 167.138 125.448 166.84 124.91 166.339C124.862 166.29 124.805 166.258 124.744 166.249C124.684 166.239 124.622 166.252 124.567 166.286C124.511 166.319 124.465 166.372 124.432 166.438C124.4 166.504 124.382 166.581 124.383 166.659V169.844C124.383 169.938 124.397 170.031 124.425 170.118C124.454 170.205 124.495 170.283 124.547 170.35C124.599 170.416 124.661 170.468 124.729 170.504C124.797 170.54 124.87 170.558 124.943 170.558L134.54 170.509Z" fill="#C1D8ED"/>
<path d="M152 170.509C152.118 170.508 152.235 170.476 152.342 170.415C152.45 170.355 152.547 170.266 152.627 170.156C152.706 170.045 152.767 169.914 152.806 169.772C152.844 169.63 152.86 169.479 152.85 169.329V169.329C152.838 169.121 152.779 168.922 152.681 168.755C152.583 168.589 152.449 168.462 152.296 168.389L147.199 166.207C147.101 166.165 146.996 166.151 146.893 166.166C146.789 166.18 146.69 166.223 146.6 166.292C145.9 166.913 145.062 167.231 144.209 167.198C143.545 167.138 142.908 166.84 142.37 166.339C142.322 166.29 142.265 166.258 142.204 166.249C142.144 166.239 142.082 166.252 142.027 166.286C141.972 166.319 141.925 166.372 141.892 166.438C141.86 166.504 141.843 166.581 141.843 166.659V169.844C141.843 169.938 141.857 170.031 141.886 170.118C141.914 170.205 141.955 170.283 142.007 170.35C142.059 170.416 142.121 170.469 142.189 170.504C142.257 170.54 142.33 170.558 142.403 170.558L152 170.509Z" fill="#C1D8ED"/>
<path d="M149.232 77.6752L144.182 63.7289C143.763 61.3066 142.586 59.635 139.844 59.4849C139.007 59.4391 134.922 59.4316 131.931 59.4316C129.922 59.4316 128.272 60.2196 127.319 61.4369C124.035 65.6342 128.066 72.7866 128.066 78.3851C128.066 83.9836 126.085 86.4909 126.231 89.3641C126.461 93.8796 143.628 92.8126 144.503 90.2477C145.403 87.6026 143.576 85.9728 143.656 77.3207C143.66 76.8091 143.68 76.2841 143.708 75.7506L145.832 81.6132C146.004 82.0887 146.277 82.4928 146.62 82.7796C146.963 83.0664 147.363 83.2243 147.773 83.2353L161.158 83.5953L161.25 77.9992L149.232 77.6752Z" fill="#367CFF"/>
<path d="M180.081 148.277C181.124 147.84 182.194 148.33 183.218 149.325C181.869 144.973 181.313 141.043 183.618 140.866C185.231 140.742 186.467 142.323 187.406 144.572C187.736 140.618 188.587 137.67 190.496 138.648C192.59 139.721 192.909 143.399 192.591 147.247C193.514 145.282 194.508 144.186 195.41 145.338C198.103 148.779 191.493 158.477 191.493 158.477H189.852L188.915 159.777C189.105 160.289 189.209 160.594 189.209 160.594L188.019 163.688C188.019 163.688 175.754 150.087 180.081 148.277Z" fill="#8DDBE0"/>
<path d="M183.024 170.618H192.314L193.869 156.759H181.469L183.024 170.618Z" fill="#C1D8ED"/>
<path d="M190.067 22.9442C190.054 22.9442 190.04 22.9442 190.026 22.9426C189.931 22.9359 189.839 22.9054 189.753 22.8529C189.668 22.8005 189.591 22.727 189.528 22.6368C189.465 22.5466 189.417 22.4413 189.385 22.3271C189.354 22.2128 189.341 22.0918 189.346 21.971C189.651 15.0119 187.498 12.4683 187.477 12.4435C187.404 12.3635 187.345 12.2659 187.303 12.1565C187.26 12.047 187.235 11.9278 187.229 11.8058C187.223 11.6838 187.236 11.5615 187.267 11.4459C187.298 11.3304 187.347 11.2239 187.411 11.1328C187.475 11.0416 187.552 10.9676 187.638 10.9149C187.724 10.8623 187.818 10.8322 187.914 10.8263C188.009 10.8204 188.105 10.8388 188.195 10.8805C188.285 10.9222 188.367 10.9864 188.437 11.0693C188.547 11.1948 191.13 14.2383 190.786 22.0749C190.775 22.3096 190.695 22.5302 190.562 22.6918C190.428 22.8534 190.251 22.9437 190.067 22.9442V22.9442Z" fill="#D7E8F4"/>
<path d="M189.749 2.41211H188.496V6.6273H189.749V2.41211Z" fill="#C1D8ED"/>
<path d="M189.122 3.03881C191.919 3.03881 194.186 2.56098 194.186 1.97155C194.186 1.38212 191.919 0.904297 189.122 0.904297C186.326 0.904297 184.059 1.38212 184.059 1.97155C184.059 2.56098 186.326 3.03881 189.122 3.03881Z" fill="#D7E8F4"/>
<path d="M168.347 2.41211H167.094V6.6273H168.347V2.41211Z" fill="#C1D8ED"/>
<path d="M167.72 3.03881C170.517 3.03881 172.784 2.56098 172.784 1.97155C172.784 1.38212 170.517 0.904297 167.72 0.904297C164.924 0.904297 162.657 1.38212 162.657 1.97155C162.657 2.56098 164.924 3.03881 167.72 3.03881Z" fill="#D7E8F4"/>
<path d="M166.598 22.8379C166.414 22.8376 166.237 22.7474 166.103 22.5857C165.969 22.4239 165.889 22.203 165.878 21.9681C165.534 14.1317 168.117 11.0882 168.227 10.9624C168.369 10.8034 168.555 10.7225 168.744 10.737C168.933 10.7516 169.11 10.8604 169.237 11.0401C169.363 11.2198 169.43 11.456 169.421 11.6976C169.413 11.9393 169.331 12.1671 169.192 12.3319C169.148 12.3852 167.018 15.0324 167.318 21.8644C167.329 22.1084 167.264 22.3479 167.136 22.5301C167.009 22.7124 166.83 22.8225 166.639 22.8363C166.625 22.8371 166.611 22.8379 166.598 22.8379Z" fill="#D7E8F4"/>
<path d="M193.196 4.36133H163.647C162.986 4.36133 162.45 5.04627 162.45 5.89119V11.6786C162.45 12.5235 162.986 13.2085 163.647 13.2085H193.196C193.857 13.2085 194.393 12.5235 194.393 11.6786V5.89119C194.393 5.04627 193.857 4.36133 193.196 4.36133Z" fill="#C1D8ED"/>
<path d="M178.421 12.0539C179.834 12.0539 180.979 10.5905 180.979 8.78525C180.979 6.98003 179.834 5.5166 178.421 5.5166C177.009 5.5166 175.864 6.98003 175.864 8.78525C175.864 10.5905 177.009 12.0539 178.421 12.0539Z" fill="white"/>
<path d="M178.421 10.761C179.276 10.761 179.968 9.87625 179.968 8.78481C179.968 7.69338 179.276 6.80859 178.421 6.80859C177.567 6.80859 176.875 7.69338 176.875 8.78481C176.875 9.87625 177.567 10.761 178.421 10.761Z" fill="#367CFF"/>
<path d="M190.257 23.4365H166.526V49.4568H190.257V23.4365Z" fill="#0CBC8B"/>
<g opacity="0.19">
<path d="M190.257 23.4365H166.526V28.8442H190.257V23.4365Z" fill="black"/>
</g>
<path d="M190.828 19.4355H165.955V24.811H190.828V19.4355Z" fill="#0CBC8B"/>
</svg>
