<svg width="32" height="32" viewBox="0 0 32 32" fill="none" xmlns="http://www.w3.org/2000/svg">
<path d="M21.7542 17.9999C22.9962 17.9999 24.003 19.0068 24.003 20.2488V21.1673C24.003 21.7406 23.8238 22.2997 23.4905 22.7662C21.9446 24.9294 19.4203 26.0011 16 26.0011C12.579 26.0011 10.0561 24.9289 8.51391 22.7646C8.18195 22.2987 8.00354 21.7409 8.00354 21.1688V20.2488C8.00354 19.0068 9.0104 17.9999 10.2524 17.9999H21.7542ZM16 6.00464C18.7614 6.00464 21 8.24321 21 11.0046C21 13.7661 18.7614 16.0046 16 16.0046C13.2386 16.0046 11 13.7661 11 11.0046C11 8.24321 13.2386 6.00464 16 6.00464Z" fill="#21005D"/>
</svg>
