<svg width="33" height="33" viewBox="0 0 33 33" fill="none" xmlns="http://www.w3.org/2000/svg">
<path d="M22.6029 7.79407C24.3978 7.79407 25.8529 9.24914 25.8529 11.0441V11.7941H7.85291V11.0441C7.85291 9.24914 9.30798 7.79407 11.1029 7.79407H22.6029ZM25.8529 13.2941V16.8159C24.8426 16.1691 23.6415 15.7941 22.3529 15.7941C18.7631 15.7941 15.8529 18.7042 15.8529 22.2941C15.8529 23.5827 16.2279 24.7838 16.8747 25.7941H11.1029C9.30798 25.7941 7.85291 24.339 7.85291 22.5441V13.2941H25.8529ZM27.8529 22.2941C27.8529 19.2565 25.3905 16.7941 22.3529 16.7941C19.3153 16.7941 16.8529 19.2565 16.8529 22.2941C16.8529 25.3316 19.3153 27.7941 22.3529 27.7941C25.3905 27.7941 27.8529 25.3316 27.8529 22.2941ZM22.3529 22.2941H24.3529C24.629 22.2941 24.8529 22.518 24.8529 22.7941C24.8529 23.0703 24.629 23.2941 24.3529 23.2941H21.8529C21.5768 23.2941 21.3529 23.0703 21.3529 22.7941L21.3529 22.7926L21.3529 19.794C21.3529 19.5179 21.5768 19.294 21.8529 19.294C22.129 19.294 22.3529 19.5179 22.3529 19.794L22.3529 22.2941Z" fill="#B3261E"/>
</svg>
