<svg width="32" height="33" viewBox="0 0 32 33" fill="none" xmlns="http://www.w3.org/2000/svg">
<path d="M25.1176 16.8159V13.2941H7.11761V22.5441C7.11761 24.339 8.57269 25.7941 10.3676 25.7941H16.1394C15.4926 24.7838 15.1176 23.5827 15.1176 22.2941C15.1176 18.7042 18.0278 15.7941 21.6176 15.7941C22.9063 15.7941 24.1073 16.1691 25.1176 16.8159ZM25.1176 11.0441C25.1176 9.24914 23.6625 7.79407 21.8676 7.79407H10.3676C8.57269 7.79407 7.11761 9.24914 7.11761 11.0441V11.7941H25.1176V11.0441ZM27.1176 22.2941C27.1176 19.2565 24.6552 16.7941 21.6176 16.7941C18.58 16.7941 16.1176 19.2565 16.1176 22.2941C16.1176 25.3316 18.58 27.7941 21.6176 27.7941C24.6552 27.7941 27.1176 25.3316 27.1176 22.2941ZM21.1176 19.2941C21.1176 19.0179 21.3415 18.7941 21.6176 18.7941C21.8938 18.7941 22.1176 19.0179 22.1176 19.2941V23.2941C22.1176 23.5702 21.8938 23.7941 21.6176 23.7941C21.3415 23.7941 21.1176 23.5702 21.1176 23.2941V19.2941ZM22.2426 25.2941C22.2426 25.6392 21.9628 25.9191 21.6176 25.9191C21.2724 25.9191 20.9926 25.6392 20.9926 25.2941C20.9926 24.9489 21.2724 24.6691 21.6176 24.6691C21.9628 24.6691 22.2426 24.9489 22.2426 25.2941Z" fill="#B3261E"/>
</svg>
