<svg width="32" height="33" viewBox="0 0 32 33" fill="none" xmlns="http://www.w3.org/2000/svg">
<path d="M15.6966 24.0459L15.3409 25.469H10.4262C8.63143 25.469 7.17648 24.014 7.17648 22.2193V12.9701H25.1749V15.4821C24.2422 15.4017 23.2816 15.7183 22.5678 16.4321L16.6659 22.334C16.1937 22.8063 15.8586 23.398 15.6966 24.0459ZM25.1749 10.7203C25.1749 8.92553 23.72 7.47058 21.9252 7.47058H10.4262C8.63143 7.47058 7.17648 8.92553 7.17648 10.7203V11.4702H25.1749V10.7203ZM23.2749 17.1392L17.373 23.0411C17.0289 23.3852 16.7848 23.8164 16.6668 24.2885L16.2091 26.119C16.0101 26.9151 16.7312 27.6362 17.5273 27.4371L19.3578 26.9795C19.8299 26.8615 20.2611 26.6174 20.6052 26.2733L26.5071 20.3713C27.3996 19.4788 27.3996 18.0317 26.5071 17.1392C25.6145 16.2467 24.1675 16.2467 23.2749 17.1392Z" fill="#21005D"/>
</svg>
