<svg width="32" height="33" viewBox="0 0 32 33" fill="none" xmlns="http://www.w3.org/2000/svg">
<path d="M25.1176 12.9706V16.4924C24.1073 15.8456 22.9063 15.4706 21.6176 15.4706C18.0278 15.4706 15.1176 18.3807 15.1176 21.9706C15.1176 23.2592 15.4926 24.4603 16.1394 25.4706H10.3676C8.57269 25.4706 7.11761 24.0155 7.11761 22.2206V12.9706H25.1176ZM21.8676 7.47058C23.6625 7.47058 25.1176 8.92566 25.1176 10.7206V11.4706H7.11761V10.7206C7.11761 8.92566 8.57269 7.47058 10.3676 7.47058H21.8676ZM27.1176 21.9706C27.1176 25.0081 24.6552 27.4706 21.6176 27.4706C18.58 27.4706 16.1176 25.0081 16.1176 21.9706C16.1176 18.933 18.58 16.4706 21.6176 16.4706C24.6552 16.4706 27.1176 18.933 27.1176 21.9706ZM24.9712 19.617C24.7759 19.4218 24.4593 19.4218 24.2641 19.617L20.6176 23.2635L18.9712 21.617C18.7759 21.4218 18.4593 21.4218 18.2641 21.617C18.0688 21.8123 18.0688 22.1289 18.2641 22.3241L20.2641 24.3241C20.4593 24.5194 20.7759 24.5194 20.9712 24.3241L24.9712 20.3241C25.1664 20.1289 25.1664 19.8123 24.9712 19.617Z" fill="#21005D"/>
</svg>
